<svg xmlns="http://www.w3.org/2000/svg" viewBox="0 0 655.5 360.5"><defs><style>.cls-1{fill:none;stroke-linecap:round;stroke-linejoin:round;opacity:0.43;}.cls-1,.cls-3{stroke:#daa520;stroke-width:3px;}.cls-2,.cls-3{fill:#daa520;}.cls-3{stroke-miterlimit:10;}</style></defs><g id="Layer_2" data-name="Layer 2"><g id="Layer_3" data-name="Layer 3"><polygon class="cls-1" points="39 12.5 335.57 12.5 335.57 7.33 342 18.5 349.32 18.5 359.64 18.5 367 26.5 372.71 26.5 375 30.5 383.03 30.5 389.22 30.5 399.54 30.5 413 25.5 452 50.5 452 56.17 460.88 56.17 460.88 61.79 462.02 61.79 462 63.5 463.4 63.5 463.4 62.02 467 62.02 467 63.05 468.1 63.05 468 65.5 466 66.5 466 68.5 468.1 68.5 469 69.5 470.28 69.5 479 75.5 479 81.05 480.02 81.05 480.02 87.47 481.29 87.47 481 93.5 482.32 93.5 482.32 99.39 483.24 99.39 483.24 104.55 481.75 104.55 479 118.5 472 124.5 472 129.5 479 133.5 493 124.5 497 124.5 506 122.5 520 114.5 517 104.5 523 102.5 544 102.5 566 80.5 604 80.5 616 66.5 631 40.5 633 45.5 641 42.5 646 47.5 646 70.41 650 73.5 654 85.5 638 93.5 631 94.5 622 99.5 614 110.5 615 117.5 610 122.5 619.67 133.5 580 144.5 592.15 144.5 576 151.5 574 162.5 566 174.5 554.5 197 554.5 186 547.21 179.5 548.5 185 547.5 187 549.5 188 549.5 190 548.5 193 549.5 195 548.5 199 549.5 202 553.17 202 553.5 211 555.5 215 551.5 213 547.5 216 552.48 216 555.5 217 546.5 226 546.5 229 547.5 232 539.5 234 529.5 246 521.53 246 514.5 257 491.5 296 506.5 337 499.5 359 482.5 338 477.5 310 462.5 293 447.5 302 435.5 291 401.5 293 398.5 307 389.5 302 391.5 308 371.5 302 339.5 301 318.5 318 311 355.4 289.5 343 264.5 300 250.5 300 244.5 310 228.5 304 222.5 289 204.5 274 186.5 274 186.5 280 153.5 280 111.5 263 83.5 264 54.5 236 45.5 234 29.5 204 21.89 183.16 12.94 179.5 7.5 160 1.5 152 6.5 137 1.5 115.33 7.5 60 1.5 24.52 18.5 27 39 12.5"/><path class="cls-2" d="M47.14,15.32a15.32,15.32,0,0,0-30.64,0,15.39,15.39,0,0,0,7.86,13.34L32,41.5l7.86-13.18A15.4,15.4,0,0,0,47.14,15.32Z"/><path class="cls-2" d="M62.69,211.08a15.32,15.32,0,1,0-22.77,13.34l7.65,12.84,7.86-13.18A15.36,15.36,0,0,0,62.69,211.08Z"/><path class="cls-2" d="M86.69,221.08a15.32,15.32,0,1,0-22.77,13.34l7.65,12.84,7.86-13.18A15.36,15.36,0,0,0,86.69,221.08Z"/><path class="cls-2" d="M326.69,252.08a15.32,15.32,0,1,0-22.77,13.34l7.65,12.84,7.86-13.18A15.36,15.36,0,0,0,326.69,252.08Z"/><path class="cls-2" d="M326.69,320.08a15.32,15.32,0,1,0-22.77,13.34l7.65,12.84,7.86-13.18A15.36,15.36,0,0,0,326.69,320.08Z"/><path class="cls-2" d="M514.69,294.08a15.32,15.32,0,1,0-22.77,13.34l7.65,12.84,7.86-13.18A15.36,15.36,0,0,0,514.69,294.08Z"/><path class="cls-3" d="M557.69,149.08a15.32,15.32,0,1,0-22.77,13.34l7.65,12.84,7.86-13.18A15.36,15.36,0,0,0,557.69,149.08Z"/><path d="M73.36,220.83a21.35,21.35,0,0,0-3.28,1.68l0,0-1.28-1H66.92l2.28,1.62h0a22.52,22.52,0,0,0-2.73,2.21h2.12a20.74,20.74,0,0,1,5.24-3.82A24.68,24.68,0,0,1,81,219.28,18.93,18.93,0,0,0,73.36,220.83Z"/><polygon points="70.25 223.9 72.03 225.37 73.93 225.29 71.11 223.24 70.25 223.9"/><path d="M47.74,210.59a22,22,0,0,0-3.29,1.68l0,0-1.28-1H41.3l2.27,1.62h0a22.52,22.52,0,0,0-2.73,2.21H43a20.48,20.48,0,0,1,5.23-3.82A24.77,24.77,0,0,1,55.37,209,18.87,18.87,0,0,0,47.74,210.59Z"/><polygon points="44.63 213.66 46.41 215.13 48.3 215.05 45.49 213 44.63 213.66"/><path d="M33.74,14.11a22,22,0,0,0-3.29,1.68l0,0-1.28-1H27.3l2.27,1.62,0,0a23.5,23.5,0,0,0-2.73,2.22H29a20.24,20.24,0,0,1,5.23-3.82,25.4,25.4,0,0,1,7.14-2.2A19,19,0,0,0,33.74,14.11Z"/><polygon points="30.63 17.17 32.41 18.64 34.3 18.56 31.49 16.52 30.63 17.17"/><path d="M313,251.43a21.35,21.35,0,0,0-3.28,1.68l0,0-1.29-1h-1.91l2.28,1.62,0,0a22.33,22.33,0,0,0-2.72,2.22h2.12a20.19,20.19,0,0,1,5.23-3.82,25.41,25.41,0,0,1,7.15-2.2A18.82,18.82,0,0,0,313,251.43Z"/><polygon points="309.85 254.49 311.63 255.96 313.52 255.88 310.71 253.83 309.85 254.49"/><path d="M314.19,319.51a21.35,21.35,0,0,0-3.28,1.68l0,0-1.28-1h-1.91l2.28,1.62,0,0a23.3,23.3,0,0,0-2.72,2.22h2.12a20.42,20.42,0,0,1,5.23-3.82,24.78,24.78,0,0,1,7.15-2.19A18.71,18.71,0,0,0,314.19,319.51Z"/><polygon points="311.08 322.57 312.86 324.05 314.75 323.96 311.94 321.92 311.08 322.57"/><path d="M501.91,292.63a21.35,21.35,0,0,0-3.28,1.68l0,0-1.28-1h-1.91l2.28,1.62,0,0a23.3,23.3,0,0,0-2.72,2.22h2.12a20.24,20.24,0,0,1,5.23-3.82,24.78,24.78,0,0,1,7.15-2.19A18.71,18.71,0,0,0,501.91,292.63Z"/><polygon points="498.8 295.69 500.58 297.17 502.47 297.08 499.66 295.04 498.8 295.69"/><path d="M545.07,147.59a21.82,21.82,0,0,0-3.28,1.68l0,0-1.28-1h-1.91l2.27,1.63,0,0a23.52,23.52,0,0,0-2.73,2.21h2.12a20.74,20.74,0,0,1,5.24-3.82,25.46,25.46,0,0,1,7.14-2.19A18.85,18.85,0,0,0,545.07,147.59Z"/><polygon points="541.97 150.65 543.74 152.12 545.64 152.04 542.83 149.99 541.97 150.65"/></g></g></svg>